<?xml version="1.0" encoding="UTF-8"?><svg xmlns="http://www.w3.org/2000/svg" viewBox="0 0 217.49 62.36"><defs><style>.d{fill:none;stroke:#000;stroke-width:1.33px;}</style></defs><g id="a"/><g id="b"><g id="c"><path class="d" d="M2.48,1.97c2.42,1.76,2.42,5.29,0,7.06C.06,10.79,.06,14.32,2.48,16.09c2.42,1.76,2.42,5.29,0,7.06C.06,24.9,.06,28.43,2.48,30.2c2.42,1.76,2.42,5.29,0,7.06-2.42,1.76-2.42,5.29,0,7.06,2.42,1.76,2.42,5.29,0,7.06-2.42,1.76-2.42,5.29,0,7.06,2.42,1.76,4.6,.22,7.05,1.97,2.45,1.75,7.34,1.75,9.79,0,2.45-1.75,7.34-1.75,9.79,0,2.45,1.75,7.34,1.75,9.78,0,2.45-1.75,7.34-1.75,9.79,0,2.45,1.75,7.34,1.75,9.79,0,2.45-1.75,7.34-1.75,9.79,0,2.45,1.75,7.34,1.75,9.78,0,2.45-1.75,7.34-1.75,9.79,0,2.45,1.75,7.34,1.75,9.79,0,2.45-1.75,7.34-1.75,9.79,0,2.45,1.75,7.34,1.75,9.79,0,2.45-1.75,7.34-1.75,9.78,0,2.45,1.75,7.34,1.75,9.79,0,2.45-1.75,7.34-1.75,9.79,0,2.45,1.75,7.34,1.75,9.79,0s7.34-1.75,9.79,0c2.45,1.75,7.34,1.75,9.78,0s7.34-1.75,9.79,0c2.45,1.75,7.34,1.75,9.79,0,2.45-1.75,7.34-1.75,9.79,0,2.45,1.75,7.34,1.75,9.78,0-2.42-1.76-2.42-5.29,0-7.06,2.42-1.76,2.42-5.29,0-7.06-2.42-1.76-2.42-5.29,0-7.06,2.42-1.76,2.42-5.29,0-7.06-2.42-1.76-2.42-5.29,0-7.06,2.42-1.76,2.42-5.29,0-7.06-2.42-1.76-2.42-5.29,0-7.06,2.42-1.76,2.42-5.29,0-7.06-2.42-1.76-4.6-.22-7.05-1.97-2.45-1.75-7.34-1.75-9.78,0-2.45,1.75-7.34,1.75-9.79,0-2.45-1.75-7.34-1.75-9.79,0-2.45,1.75-7.34,1.75-9.79,0-2.45-1.75-7.34-1.75-9.78,0-2.45,1.75-7.34,1.75-9.79,0-2.45-1.75-7.34-1.75-9.79,0-2.45,1.75-7.34,1.75-9.79,0-2.45-1.75-7.34-1.75-9.79,0-2.45,1.75-7.34,1.75-9.78,0-2.45-1.75-7.34-1.75-9.79,0-2.45,1.75-7.34,1.75-9.79,0-2.45-1.75-7.34-1.75-9.79,0-2.45,1.75-7.34,1.75-9.79,0-2.45-1.75-7.34-1.75-9.78,0-2.45,1.75-7.34,1.75-9.79,0-2.45-1.75-7.34-1.75-9.79,0-2.45,1.75-7.34,1.75-9.79,0-2.45-1.75-7.34-1.75-9.78,0-2.45,1.75-7.34,1.75-9.79,0C9.82,.23,4.93,.23,2.48,1.97"/></g></g></svg>