<?xml version="1.0" encoding="UTF-8"?><svg xmlns="http://www.w3.org/2000/svg" viewBox="0 0 217.49 62.36"><defs><style>.d{fill:none;stroke:#000;stroke-width:1.33px;}</style></defs><g id="a"/><g id="b"><g id="c"><g><g><path d="M41.49,30.48c0-3.66,2.81-6.27,6.28-6.27,2.2,0,3.82,.81,4.9,2.43l-1.46,1.04c-.68-1.06-1.84-1.76-3.44-1.76-2.54,0-4.34,1.94-4.34,4.55s1.8,4.57,4.34,4.57c1.69,0,2.83-.76,3.62-1.93l1.46,1.03c-1.06,1.62-2.79,2.61-5.08,2.61-3.48,0-6.28-2.63-6.28-6.28Z"/><path d="M54.21,32.82c0-2.25,1.8-3.94,4.09-3.94s4.07,1.69,4.07,3.94-1.76,3.94-4.07,3.94-4.09-1.69-4.09-3.94Zm6.28,0c0-1.39-.85-2.36-2.2-2.36s-2.21,.97-2.21,2.36,.86,2.38,2.21,2.38,2.2-.99,2.2-2.38Z"/><path d="M64.29,29.04h1.82l-.04,1.4c.47-.99,1.42-1.57,2.56-1.57,1.67,0,2.83,1.19,2.83,3.24v4.48h-1.82v-4.34c0-1.08-.5-1.71-1.57-1.71-1.19,0-1.96,.72-1.96,1.94v4.11h-1.82v-7.56Z"/><path d="M73.69,29.04h1.82l-.04,1.4c.47-.99,1.42-1.57,2.56-1.57,1.67,0,2.83,1.19,2.83,3.24v4.48h-1.82v-4.34c0-1.08-.5-1.71-1.57-1.71-1.19,0-1.96,.72-1.96,1.94v4.11h-1.82v-7.56Z"/><path d="M86.95,35.24c.99,0,1.71-.4,2.14-.81l1.06,1.12c-.7,.7-1.67,1.22-3.19,1.22-2.59,0-4.27-1.67-4.27-3.94s1.76-3.94,4.03-3.94c2.57,0,4.03,1.91,3.91,4.56h-6.09c.22,1.1,1.01,1.8,2.39,1.8Zm1.86-3.06c-.16-1.03-.79-1.78-2.05-1.78-1.17,0-1.98,.65-2.2,1.78h4.25Z"/><path d="M92.19,32.82c0-2.25,1.73-3.94,4.03-3.94,1.42,0,2.34,.54,3.06,1.44l-1.3,1.04c-.36-.52-.99-.88-1.76-.88-1.35,0-2.16,.99-2.16,2.34s.81,2.34,2.16,2.34c.9,0,1.44-.38,1.85-.85l1.24,1.08c-.74,.85-1.64,1.37-3.1,1.37-2.3,0-4.03-1.67-4.03-3.94Z"/><path d="M101.71,34.05v-3.48h-1.13v-1.53h1.13v-3.94h1.82v3.94h2.02v1.53h-2.02v3.51c0,.86,.29,1.12,.76,1.12,.43,0,.7-.2,.9-.36l.86,1.22c-.38,.36-.97,.72-1.94,.72-1.42,0-2.39-.72-2.39-2.74Z"/><path d="M112.28,34.05v-3.48h-1.13v-1.53h1.13v-3.94h1.82v3.94h2.02v1.53h-2.02v3.51c0,.86,.29,1.12,.76,1.12,.43,0,.7-.2,.9-.36l.86,1.22c-.38,.36-.97,.72-1.95,.72-1.42,0-2.39-.72-2.39-2.74Z"/><path d="M117.68,32.82c0-2.25,1.8-3.94,4.09-3.94s4.07,1.69,4.07,3.94-1.76,3.94-4.07,3.94-4.09-1.69-4.09-3.94Zm6.28,0c0-1.39-.85-2.36-2.2-2.36s-2.21,.97-2.21,2.36,.86,2.38,2.21,2.38,2.2-.99,2.2-2.38Z"/><path d="M131.25,24.36h2l2.16,6.52c.23,.68,.47,1.75,.47,1.75,0,0,.31-1.04,.59-1.75l2.81-6.64h.23l2.83,6.64c.29,.68,.58,1.75,.58,1.75,0,0,.25-1.06,.49-1.75l2.16-6.52h1.86l-4.23,12.37h-.23l-3.04-7.29c-.25-.59-.5-1.49-.5-1.49,0,0-.29,.9-.54,1.49l-3.12,7.29h-.23l-4.27-12.37Z"/><path d="M150.51,30.39c-.99,0-1.57,.43-1.98,.9l-1.04-1.06c.67-.79,1.57-1.35,3.17-1.35,1.82,0,3.19,1.03,3.19,3.26v4.46h-1.82l.05-1.08c-.54,.81-1.26,1.24-2.38,1.24-1.49,0-2.72-.7-2.72-2.39,0-1.57,1.26-2.25,2.97-2.27h2.07c0-1.21-.54-1.71-1.51-1.71Zm-.43,2.97c-.79,0-1.31,.29-1.31,.95s.5,.99,1.44,.99c1.06,0,1.82-.52,1.82-1.35v-.59h-1.94Z"/><path d="M156.14,23.6h1.82v13h-1.82v-13Z"/><path d="M160.41,23.6h1.82v13h-1.82v-13Z"/><path d="M168.47,35.24c.99,0,1.71-.4,2.14-.81l1.06,1.12c-.7,.7-1.67,1.22-3.19,1.22-2.59,0-4.27-1.67-4.27-3.94s1.76-3.94,4.03-3.94c2.57,0,4.03,1.91,3.91,4.56h-6.08c.22,1.1,1.01,1.8,2.39,1.8Zm1.85-3.06c-.16-1.03-.79-1.78-2.05-1.78-1.17,0-1.98,.65-2.2,1.78h4.25Z"/><path d="M174.57,34.05v-3.48h-1.13v-1.53h1.13v-3.94h1.82v3.94h2.02v1.53h-2.02v3.51c0,.86,.29,1.12,.76,1.12,.43,0,.7-.2,.9-.36l.86,1.22c-.38,.36-.97,.72-1.95,.72-1.42,0-2.39-.72-2.39-2.74Z"/></g><path class="d" d="M2.48,1.97c2.42,1.76,2.42,5.29,0,7.06C.06,10.79,.06,14.32,2.48,16.09c2.42,1.76,2.42,5.29,0,7.06C.06,24.9,.06,28.43,2.48,30.2c2.42,1.76,2.42,5.29,0,7.06-2.42,1.76-2.42,5.29,0,7.06,2.42,1.76,2.42,5.29,0,7.06-2.42,1.76-2.42,5.29,0,7.06,2.42,1.76,4.6,.22,7.05,1.97,2.45,1.75,7.34,1.75,9.79,0,2.45-1.75,7.34-1.75,9.79,0,2.45,1.75,7.34,1.75,9.78,0,2.45-1.75,7.34-1.75,9.79,0,2.45,1.75,7.34,1.75,9.79,0,2.45-1.75,7.34-1.75,9.79,0,2.45,1.75,7.34,1.75,9.78,0,2.45-1.75,7.34-1.75,9.79,0,2.45,1.75,7.34,1.75,9.79,0,2.45-1.75,7.34-1.75,9.79,0,2.45,1.75,7.34,1.75,9.79,0,2.45-1.75,7.34-1.75,9.78,0,2.45,1.75,7.34,1.75,9.79,0,2.45-1.75,7.34-1.75,9.79,0,2.45,1.75,7.34,1.75,9.79,0s7.34-1.75,9.79,0c2.45,1.75,7.34,1.75,9.78,0s7.34-1.75,9.79,0c2.45,1.75,7.34,1.75,9.79,0,2.45-1.75,7.34-1.75,9.79,0,2.45,1.75,7.34,1.75,9.78,0-2.42-1.76-2.42-5.29,0-7.06,2.42-1.76,2.42-5.29,0-7.06-2.42-1.76-2.42-5.29,0-7.06,2.42-1.76,2.42-5.29,0-7.06-2.42-1.76-2.42-5.29,0-7.06,2.42-1.76,2.42-5.29,0-7.06-2.42-1.76-2.42-5.29,0-7.06,2.42-1.76,2.42-5.29,0-7.06-2.42-1.76-4.6-.22-7.05-1.97-2.45-1.75-7.34-1.75-9.78,0-2.45,1.75-7.34,1.75-9.79,0-2.45-1.75-7.34-1.75-9.79,0-2.45,1.75-7.34,1.75-9.79,0-2.45-1.75-7.34-1.75-9.78,0-2.45,1.75-7.34,1.75-9.79,0-2.45-1.75-7.34-1.75-9.79,0-2.45,1.75-7.34,1.75-9.79,0-2.45-1.75-7.34-1.75-9.79,0-2.45,1.75-7.34,1.75-9.78,0-2.45-1.75-7.34-1.75-9.79,0-2.45,1.75-7.34,1.75-9.79,0-2.45-1.75-7.34-1.75-9.79,0-2.45,1.75-7.34,1.75-9.79,0-2.45-1.75-7.34-1.75-9.78,0-2.45,1.75-7.34,1.75-9.79,0-2.45-1.75-7.34-1.75-9.79,0-2.45,1.75-7.34,1.75-9.79,0-2.45-1.75-7.34-1.75-9.78,0-2.45,1.75-7.34,1.75-9.79,0C9.82,.23,4.93,.23,2.48,1.97"/></g></g></g></svg>