<?xml version="1.0" encoding="UTF-8" standalone="no"?>
<svg
   xmlns:dc="http://purl.org/dc/elements/1.1/"
   xmlns:cc="http://creativecommons.org/ns#"
   xmlns:rdf="http://www.w3.org/1999/02/22-rdf-syntax-ns#"
   xmlns:svg="http://www.w3.org/2000/svg"
   xmlns="http://www.w3.org/2000/svg"
   viewBox="0 0 1920 557.59999"
   height="557.59998"
   width="1920"
   xml:space="preserve"
   id="svg833"
   version="1.1"><metadata
     id="metadata839"><rdf:RDF><cc:Work
         rdf:about=""><dc:format>image/svg+xml</dc:format><dc:type
           rdf:resource="http://purl.org/dc/dcmitype/StillImage" /><dc:title></dc:title></cc:Work></rdf:RDF></metadata><defs
     id="defs837"><clipPath
       id="clipPath851"
       clipPathUnits="userSpaceOnUse"><path
         id="path849"
         d="M 0,979.463 H 1440 V 0 H 0 Z" /></clipPath><clipPath
       id="clipPath885"
       clipPathUnits="userSpaceOnUse"><path
         id="path883"
         d="M 0,979.463 H 1440 V 0 H 0 Z" /></clipPath><clipPath
       id="clipPath945"
       clipPathUnits="userSpaceOnUse"><path
         id="path943"
         d="M 0,979.463 H 1440 V 0 H 0 Z" /></clipPath><clipPath
       clipPathUnits="userSpaceOnUse"
       id="clipPath851-8"><path
         d="M 0,979.463 H 1440 V 0 H 0 Z"
         id="path849-0" /></clipPath><clipPath
       id="clipPath1843"
       clipPathUnits="userSpaceOnUse"><rect
         y="-405.29999"
         x="2170.2"
         height="424.40668"
         width="1447.7744"
         id="rect1845"
         style="fill:#ff0000;stroke:#ffffff;stroke-width:0;stroke-miterlimit:4;stroke-dasharray:none;stroke-dashoffset:0" /></clipPath></defs><g
     transform="matrix(1.3333333,0,0,-1.3333333,0,1305.9507)"
     id="g841"><g
       id="g845"
       transform="translate(0,132.69525)"><g
         id="g847"
         clip-path="url(#clipPath851-8)"><g
           style="font-variant:normal;font-weight:300;font-stretch:normal;font-size:600px;font-family:'Reckless Light';-inkscape-font-specification:Reckless-Light;writing-mode:lr-tb;fill:#01ff00;fill-opacity:1;fill-rule:nonzero;stroke:none"
           id="text855"
           transform="matrix(1,0,0,-1,-2169.2715,421.9678)"
           aria-label="A Token-Based Economy"><g
             clip-path="url(#clipPath1843)"
             transform="translate(-0.9284,-19.5)"
             style="font-variant:normal;font-weight:300;font-stretch:normal;font-size:600px;font-family:'Reckless Light';-inkscape-font-specification:Reckless-Light;writing-mode:lr-tb;fill:#01ff00;fill-opacity:1;fill-rule:nonzero;stroke:none"
             id="g1762"><path
               id="path1722"
               d="m 2320.1999,-186.6 h -150 v 31.2 h 150 z" /><path
               id="path1724"
               d="m 2511,-400.8 h -166.8 v 7.8 c 37.2,1.8 61.2,10.2 61.2,46.8 v 291 c 0,37.8 -23.4,45.6 -60.6,47.4 V 0 h 187.8 c 91.8,0 143.4,-42 143.4,-107.4 0,-58.2 -40.8,-93 -120.6,-105 51.6,-8.4 93,-35.4 93,-93.6 0,-68.4 -49.2,-94.8 -137.4,-94.8 z m -16.8,19.2 c 73.8,0 107.4,33.6 107.4,75.6 0,61.2 -28.2,88.8 -100.8,88.8 h -53.4 v -164.4 z m 19.2,183 c 82.8,0 115.2,42 115.2,91.2 0,59.4 -31.2,88.2 -99.6,88.2 h -15 c -43.8,0 -66.6,-3 -66.6,-36.6 v -142.8 z" /><path
               id="path1726"
               d="m 2986.2,-23.4 c -33.6,0 -39.6,-15.6 -39.6,-37.8 v -129 c 0,-73.8 -38.4,-118.2 -102,-118.2 -61.2,0 -116.4,42.6 -116.4,90 0,12 3.6,21.6 12,33 l 37.8,-15 c -6,-12.6 -9,-21.6 -9,-33 0,-32.4 23.4,-57 61.2,-57 48.6,0 78.6,37.8 78.6,100.2 v 7.2 l -43.2,10.2 c -102.6,22.2 -135.6,52.2 -135.6,105.6 0,51 39,75.6 79.2,75.6 37.8,0 78.6,-22.8 99.6,-71.4 V 8.4 h 8.4 l 75.6,-24 v -7.8 z m -159.6,-1.8 c -29.4,0 -56.4,-15.6 -56.4,-51 0,-42 24,-63.6 97.2,-80.4 l 41.4,-9 v 88.2 c -20.4,37.2 -51,52.2 -82.2,52.2 z" /><path
               id="path1728"
               d="m 3130.2,-308.4 c -60,0 -99,33 -98.4,83.4 1.2,91.8 171.6,73.8 172.8,157.8 0.6,30 -24.6,58.2 -66.6,58.2 -35.4,0 -63.6,-26.4 -73.2,-69.6 l -44.4,26.4 c 23.4,39 67.2,60.6 113.4,60.6 65.4,0 106.8,-41.4 105.6,-91.8 -2.4,-107.4 -175.2,-76.2 -175.2,-156 0,-30.6 25.2,-51.6 64.2,-51.6 33.6,0 57.6,22.8 67.8,61.2 l 42.6,-28.8 c -11.4,-18.6 -40.2,-49.8 -108.6,-49.8 z" /><path
               id="path1730"
               d="m 3424.2,-308.4 c -79.2,0 -138,61.2 -138,166.8 0,82.2 52.8,150 129.6,150 57,0 100.2,-37.2 115.8,-84.6 l -6.6,-3 c -20.4,25.8 -47.4,51.6 -91.8,51.6 -64.8,0 -107.4,-55.2 -109.2,-141 h 210 c 0,-72.6 -37.2,-139.8 -109.8,-139.8 z m -9.6,19.2 c 53.4,0 72,45.6 76.2,103.8 h -166.2 c 5.4,-60 32.4,-103.8 90,-103.8 z" /><path
               id="path1732"
               d="m 3874.2,-23.4 c -28.8,0 -37.8,-11.4 -37.8,-38.4 v -363 h -8.4 l -73.8,24 v 7.8 h 6.6 c 28.8,0 37.8,11.4 37.8,39 v 75.6 c -16.2,-16.8 -37.2,-30 -72,-30 -75.6,0 -146.4,61.2 -146.4,168.6 0,82.2 48.6,148.2 120,148.2 46.8,0 81.6,-32.4 98.4,-54.6 V 8.4 h 8.4 l 73.2,-24 v -7.8 z M 3798.6,-57 c -15,16.8 -49.8,34.8 -84,34.8 -66,0 -93.6,-75.6 -93.6,-140.4 0,-74.4 37.2,-129 89.4,-129 60,0 88.2,56.4 88.2,95.4 z" /></g></g></g></g></g></svg>
