<?xml version="1.0" encoding="UTF-8" standalone="no"?>
<svg
   xmlns:dc="http://purl.org/dc/elements/1.1/"
   xmlns:cc="http://creativecommons.org/ns#"
   xmlns:rdf="http://www.w3.org/1999/02/22-rdf-syntax-ns#"
   xmlns:svg="http://www.w3.org/2000/svg"
   xmlns="http://www.w3.org/2000/svg"
   xmlns:sodipodi="http://sodipodi.sourceforge.net/DTD/sodipodi-0.dtd"
   xmlns:inkscape="http://www.inkscape.org/namespaces/inkscape"
   inkscape:version="1.0 (4035a4f, 2020-05-01)"
   height="537.94"
   width="537.94"
   sodipodi:docname="CIRCLE.svg"
   id="svg937"
   version="1.1"
   viewBox="0 0 537.94 537.94001">
  <metadata
     id="metadata941">
    <rdf:RDF>
      <cc:Work
         rdf:about="">
        <dc:format>image/svg+xml</dc:format>
        <dc:type
           rdf:resource="http://purl.org/dc/dcmitype/StillImage" />
      </cc:Work>
    </rdf:RDF>
  </metadata>
  <sodipodi:namedview
     inkscape:current-layer="svg937"
     inkscape:window-maximized="1"
     inkscape:window-y="23"
     inkscape:window-x="0"
     inkscape:cy="621.23371"
     inkscape:cx="314.31155"
     inkscape:zoom="0.32780952"
     showgrid="false"
     id="namedview939"
     inkscape:window-height="959"
     inkscape:window-width="1920"
     inkscape:pageshadow="2"
     inkscape:pageopacity="0"
     guidetolerance="10"
     gridtolerance="10"
     objecttolerance="10"
     borderopacity="1"
     bordercolor="#666666"
     pagecolor="#ffffff" />
  <defs
     id="defs864">
    <style
       id="style859">.e,.f{fill:none;}.f{stroke:#3b2314;stroke-miterlimit:10;}.g{clip-path:url(#d);}</style>
    <clipPath
       id="d">
      <circle
         id="circle861"
         r="268.47"
         cy="297.35001"
         cx="346.10999"
         class="e" />
    </clipPath>
  </defs>
  <g
     id="a" />
  <g
     transform="translate(-77.139984,-28.380005)"
     id="b">
    <g
       id="c">
      <g
         id="g933">
        <g
           id="g929"
           clip-path="url(#d)"
           class="g">
          <g
             id="g927">
            <path
               id="path867"
               d="m 545.61,14.82 c 8.82,15.43 33.62,14.33 54.02,23.15 20.39,8.82 24.25,30.87 25.91,31.97 0,0 15.07,29.4 24.62,24.62"
               class="f" />
            <path
               id="path869"
               d="m 504.82,9.86 c 0,0 24.25,29.76 46.85,32.52 22.6,2.76 50.71,12.13 61.73,61.18 11.02,49.06 30.87,51.81 30.87,51.81"
               class="f" />
            <path
               id="path871"
               d="m 416.63,0.49 c 0,0 51.81,42.44 83.78,51.81 31.97,9.37 84.88,28.11 89.29,76.07 4.41,47.95 15.98,120.16 54.57,115.2"
               class="f" />
            <path
               id="path873"
               d="m 357.65,9.86 c -8.48,0.84 42.42,32.67 114.65,56.22 56.73,18.5 91.5,45.2 95.36,72.76 3.86,27.56 18.74,138.35 53.47,144.41 34.73,6.06 18.74,0 18.74,0"
               class="f" />
            <path
               id="path875"
               d="m 304.18,0.49 c 0,3.31 11.58,42.99 89.85,60.63 36.19,8.16 71.38,22.88 102.58,42.97 17.43,11.22 43.73,28.11 48.79,50.02 6.05,26.18 3.93,53.51 10.23,79.64 3.42,14.16 9.58,27.64 17.88,39.61 8.35,12.03 19.75,20.84 28.95,32.06 6.78,8.27 13.19,16.86 20.55,24.64 4.74,5.02 12.58,13.87 20.52,11.63"
               class="f" />
            <path
               id="path877"
               d="m 257.88,0.49 c 0,0 13.23,51.81 74.41,64.49 61.18,12.68 163.15,60.63 178.59,90.4 15.43,29.76 25.91,66.69 34.73,102.52 8.82,35.83 35.28,65.59 51.81,73.86 16.54,8.27 46.85,47.95 46.85,47.95"
               class="f" />
            <path
               id="path879"
               d="m 211.58,14.82 c 0,0 51.81,56.77 92.6,63.39 40.79,6.61 153.6,51.81 169.68,77.17 16.08,25.36 29.86,40.79 50.25,100.32 20.39,59.53 29.21,79.37 57.32,93.7 28.11,14.33 65.59,60.63 65.59,60.63"
               class="f" />
            <path
               id="path881"
               d="m 308.14,127.52 c -0.49,-0.89 -0.98,-1.78 -1.48,-2.66 -6.01,-10.64 -12.58,-25.14 6.34,-24.05 28.66,1.65 120.71,30.87 152.68,82.68 13.48,21.84 25.73,44.58 35.86,68.17 8.44,19.66 17.6,40.57 11.38,62.24 -1.07,3.74 -2.69,7.58 -5.88,9.8 -10.59,7.37 -28.24,-1.85 -38.59,-6.32 C 456.02,312 444,305.62 432.4,298.64 c -24.86,-14.95 -50.75,-33.46 -66.49,-58.38 -12.18,-19.29 -23.02,-39.4 -33.04,-59.88 -8.55,-17.47 -15.43,-35.76 -24.74,-52.86 z"
               class="f" />
            <path
               id="path883"
               d="m 482.22,262.86 c 0,-13.06 -7.3,-31.22 -12.92,-42.83 -6.78,-14.02 -17.51,-25.54 -28.52,-36.35 -13.56,-13.32 -29.18,-25.83 -46.59,-34.5 -6.6,-3.29 -49,-23.16 -52.96,-12.09 -5.03,14.08 8.14,31.99 12.74,44.99 8.88,25.1 22.4,44.64 40.34,64 12.88,13.91 30.75,35.88 50.42,39.87 22.05,4.47 37.48,2.27 37.48,-23.09 z"
               class="f" />
            <path
               id="path885"
               d="m 451.08,222.07 c 0,0 14.61,44.65 0,45.2 -12.59,0.47 -25.33,-10.41 -33.81,-18.5 -15.63,-14.9 -25.88,-38.06 -31.5,-58.66 -1.32,-4.85 -3.63,-10.29 -2.55,-15.37 0.23,-1.09 0.63,-2.15 1.34,-3.01 1.61,-1.96 4.51,-2.43 6.97,-1.81 3.42,0.86 6.38,3.38 9.57,4.87 6.56,3.07 13.05,6.32 19.15,10.23 14.67,9.4 22.74,22.05 30.84,37.05 z"
               class="f" />
            <path
               id="path887"
               d="m 436.71,230.41 c 0.16,-0.58 0.29,-1.18 0.37,-1.8 0.89,-7.13 -7.29,-19.04 -13.28,-22.51 -3.47,-2.01 -6.64,-4.8 -10.41,-6.26 -8.53,-3.3 -4.43,9.51 -3.21,13.25 2.84,8.7 7.28,18.2 15.7,22.72 4.82,2.59 9.41,-0.37 10.84,-5.4 z"
               class="f" />
            <path
               id="path889"
               d="m 179.8,19.6 c 0,0 57.69,41.16 78.09,75.7 20.39,34.54 54.34,132.29 84.4,159.48 30.06,27.19 77.83,81.92 124.13,87.26 46.3,5.34 73.49,8.28 99.95,33.27 26.46,24.99 71.29,57.32 71.29,57.32"
               class="f" />
            <path
               id="path891"
               d="m 643.53,459.09 c -12.49,-10.64 -25.05,-21.2 -37.69,-31.66 -17.28,-14.31 -34,-32.71 -55.76,-39.85 -29.29,-9.62 -59.35,-14.64 -89.54,-20.35 C 433.35,362.09 343.69,343.71 312.08,259.93 295.02,214.71 274.37,170.44 249.92,128.73 241.39,114.18 232.47,97.4 220.25,85.63 200.9,67 177.89,52.89 155.89,37.69 136.41,24.21 117.41,4.42 93.08,0.49"
               class="f" />
            <path
               id="path893"
               d="m 77.64,14.82 c 0,0 70.55,47.4 92.6,62.84 22.05,15.43 52.18,42.63 60.26,63.2 8.08,20.58 33.07,85.25 55.12,122.73 22.05,37.48 63.75,94.07 125.58,108.77 28.59,6.8 57.4,12.61 86.02,19.26 31.39,7.3 55.48,18.31 81.78,36.68 21.83,15.25 50.76,34.6 58.65,61.65"
               class="f" />
            <path
               id="path895"
               d="m 52.65,23.28 c 0,0 58.79,41.52 86.72,59.35 27.93,17.82 65.04,53.83 72.21,75.88 7.17,22.05 30.32,85.25 46.3,114.65 15.98,29.4 30.68,54 58.61,68.89 27.93,14.89 54.1,39.91 85.99,48.7 34.66,9.55 59.61,7.7 86.72,19.29 31.4,13.42 68.35,43.18 92.6,63.02 24.25,19.84 68.35,57.32 68.35,57.32"
               class="f" />
            <path
               id="path897"
               d="m 37.22,51.2 c 2.2,0 59.53,27.19 75.7,42.63 16.17,15.43 60.26,41.89 73.49,81.58 13.23,39.69 57.32,150.66 109.5,180.79 52.18,30.13 69.69,52.18 126.71,61 49.5,7.66 97.54,30.9 136,62.73 13.72,11.35 24.93,24.96 38.09,36.94 13.39,12.19 27.28,23.84 41.26,35.34 10.34,8.51 20.76,16.92 31.28,25.21"
               class="f" />
            <path
               id="path899"
               d="m 33.55,94.56 c 38.6,7.93 68.36,33.9 91.69,64.46 26.33,34.5 48.35,73.08 69.82,110.7 30.02,52.59 56.24,103.49 110.45,135.25 45.29,26.54 98.56,25.02 147.74,39 48.25,13.71 85.61,49.12 122.65,81.08 3.32,2.87 6.65,5.72 10.01,8.55 11.42,9.61 22.64,19.45 33.84,29.31 9.11,8.02 22.62,16.86 27.29,28.47"
               class="f" />
            <path
               id="path901"
               d="m 632.51,604.6 c 0,-2.2 -96.64,-97.75 -127.69,-109.5 C 473.77,483.34 407.63,461.29 376.02,455.41 344.42,449.53 248.14,412.42 217.28,366.85 187.78,323.3 184.94,285.27 157.75,252.38 130.56,219.49 60.74,129.83 42.37,129.1"
               class="f" />
            <path
               id="path903"
               d="m 37.22,147.91 c 0,0 101.42,110.55 119.79,150.23 18.37,39.69 -3.67,130.82 -75.7,74.23 C 9.29,315.78 13.7,252.39 13.7,252.39"
               class="f" />
            <path
               id="path905"
               d="m 37.22,199.3 c 16.64,12.42 30.81,32.37 44.29,47.93 10.91,12.59 21.6,25.45 31.36,38.97 10.19,14.12 26.19,32.71 14.94,50.48 -3.99,6.31 -9.97,11.25 -17.58,12.15 -31.14,3.7 -53.95,-46.29 -64.19,-67.58"
               class="f" />
            <path
               id="path907"
               d="m 585.57,609.01 c 0,0 -57.05,-77.17 -96.73,-94.81 C 449.15,496.56 365.51,488.84 322.45,466.8 279.39,444.75 278.28,452.47 227.57,419.4 176.86,386.33 141.58,417.2 110.72,410.03 79.85,402.86 28.04,367.22 24.73,366.85"
               class="f" />
            <path
               id="path909"
               d="m 52.65,423.81 c 0,0 64.67,29.76 105.46,23.15 40.79,-6.61 68.35,-1.1 112.44,22.05 44.1,23.15 122.37,47.77 173.08,61.37 50.71,13.6 101.42,55.49 101.97,78.64"
               class="f" />
            <path
               id="path911"
               d="M 337.44,621.14 C 326.73,613.38 324,589.04 319.37,577.57 303.38,537.95 274.54,497.05 232.26,483.12 187.75,468.44 138.81,485.01 93.07,474.53 40.16,462.4 19.21,450.28 8.19,442.56"
               class="f" />
            <path
               id="path913"
               d="M 293.71,609.01 C 290.4,604.6 260.64,536.25 222.05,521.92 183.47,507.59 165.09,519.72 84.43,495.46 3.78,471.22 0.47,481.14 0.47,481.14"
               class="f" />
            <path
               id="path915"
               d="m 243,609.01 c 0,-2.2 -0.37,-66.14 -70.19,-71.66 -69.82,-5.51 -106.2,-3.31 -152.5,-20.95"
               class="f" />
            <path
               id="path917"
               d="m 223.16,604.6 c 0,0 -33.07,-46.3 -189.61,-41.89"
               class="f" />
            <path
               id="path919"
               d="m 520.8,604.6 c 0,0 -175.28,-105.83 -188.51,-80.47 -13.23,25.36 31.97,84.88 31.97,84.88"
               class="f" />
            <path
               id="path921"
               d="m 451.08,600.19 c 1.38,-3.31 -77.63,-63.94 -82.77,-48.51 -5.14,15.43 -7.35,40.79 22.42,52.91"
               class="f" />
            <path
               id="path923"
               d="m 52.65,236.76 c 3.74,4.06 60.26,68.36 53.65,77.55 -6.61,9.19 -16.03,10.74 -49.91,-45.15"
               class="f" />
            <rect
               id="rect925"
               height="571.77002"
               width="571.77002"
               y="19.6"
               x="56.400002"
               class="e" />
          </g>
        </g>
        <circle
           id="circle931"
           r="268.47"
           cy="297.35001"
           cx="346.10999"
           class="f" />
      </g>
    </g>
  </g>
</svg>
