<?xml version="1.0" encoding="UTF-8" standalone="no"?>
<svg
   xmlns:dc="http://purl.org/dc/elements/1.1/"
   xmlns:cc="http://creativecommons.org/ns#"
   xmlns:rdf="http://www.w3.org/1999/02/22-rdf-syntax-ns#"
   xmlns:svg="http://www.w3.org/2000/svg"
   xmlns="http://www.w3.org/2000/svg"
   id="svg1127"
   version="1.1"
   viewBox="0 0 114.52165 79.375"
   height="79.375mm"
   width="114.52165mm">
  <defs
     id="defs1121">
    <clipPath
       clipPathUnits="userSpaceOnUse"
       id="clipPath1023">
      <path
         d="M 768.029,767.901 H 1481.12 V 231.902 H 768.029 Z"
         id="path1021" />
    </clipPath>
  </defs>
  <metadata
     id="metadata1124">
    <rdf:RDF>
      <cc:Work
         rdf:about="">
        <dc:format>image/svg+xml</dc:format>
        <dc:type
           rdf:resource="http://purl.org/dc/dcmitype/StillImage" />
        <dc:title></dc:title>
      </cc:Work>
    </rdf:RDF>
  </metadata>
  <g
     id="layer1">
    <g
       id="g1033"
       transform="matrix(0.17102995,0,0,-0.17102995,-132.99781,123.53505)">
      <g
         clip-path="url(#clipPath1023)"
         opacity="0.350006"
         id="g1031">
        <g
           aria-label="Com- pany. "
           transform="matrix(1,0,0,-1,768.0288,517.7007)"
           id="text1029"
           style="font-variant:normal;font-weight:300;font-stretch:normal;font-size:300px;font-family:'Reckless Light';-inkscape-font-specification:Reckless-Light;writing-mode:lr-tb;fill:#000000;fill-opacity:1;fill-rule:nonzero;stroke:none">
          <path
             id="path1061"
             d="m 627.6,204.30001 c 10.2,0 18,-7.8 18,-18 0,-9.9 -6.9,-18 -18,-18 -9.9,0 -18,8.1 -18,18 0,10.2 8.1,18 18,18 z m -118.49999,52.5 v 2.7 h 18.3 l 80.4,-193.200004 c 3,-6.9 7.2,-10.2 18,-12.3 v -3.9 h -50.7 v 3.9 c 19.5,3.3 26.1,6 20.1,20.1 l -39.3,94.500004 -40.2,-94.500004 c -5.7,-12.9 -1.2,-16.8 19.2,-20.1 v -3.9 h -61.5 v 3.9 c 11.7,3.3 15,6 17.7,12 l 55.2,128.400004 z m -49.2,-78.6 V 95.400006 c 0,-33.9 -21.6,-49.5 -43.8,-49.5 -17.7,0 -33.3,10.8 -51.3,34.8 v -34.8 h -4.2 l -36.9,12 v 4.2 h 2.7 c 15.3,-0.3 19.5,6.9 19.5,19.2 v 96.900004 c 0,13.5 -10.8,16.2 -22.2,18 v 3.9 h 63.3 v -3.9 c -11.4,-1.8 -22.2,-4.5 -22.2,-18 V 87.900006 c 15.6,-17.7 27.9,-24.9 43.8,-24.9 18.3,0 32.4,9.9 32.4,35.1 v 80.100004 c 0,13.5 -10.8,16.2 -22.2,18 v 3.9 h 63.3 v -3.9 c -11.4,-1.8 -22.2,-4.5 -22.2,-18 z m -147.60001,10.2 c -16.8,0 -19.8,-7.8 -19.8,-18.9 v -64.5 c 0,-36.900004 -19.2,-59.100004 -51,-59.100004 -30.6,0 -58.2,21.3 -58.2,45 0,6 1.8,10.800004 6,16.500004 l 18.9,-7.500004 c -3,-6.3 -4.5,-10.8 -4.5,-16.5 0,-16.2 11.7,-28.5 30.6,-28.5 24.3,0 39.3,18.9 39.3,50.100004 v 3.6 l -21.6,5.1 c -51.3,11.1 -67.8,26.1 -67.8,52.8 0,25.5 19.5,37.8 39.6,37.8 18.9,0 39.3,-11.4 49.8,-35.7 v 35.7 h 4.2 l 37.8,-12 v -3.9 z m -79.8,-0.9 c -14.7,0 -28.2,-7.8 -28.2,-25.5 0,-21 12,-31.8 48.6,-40.2 l 20.7,-4.5 v 44.1 c -10.2,18.6 -25.5,26.1 -41.1,26.1 z M 99.9,45.900006 c -23.7,0 -41.1,17.1 -49.2,28.2 v -28.2 h -4.2 l -36.9,12 v 4.2 h 3.3 c 14.4,-0.3 18.9,5.4 18.9,19.2 V 237.60001 c 0,13.5 -10.8,16.2 -22.2,18 v 3.9 h 63 v -3.9 c -11.1,-1.8 -21.9,-4.5 -21.9,-18 v -48.3 c 8.1,8.4 18.6,15 36,15 37.8,0 73.2,-30.6 73.2,-84.3 0,-41.100004 -24,-74.100004 -60,-74.100004 z M 94.8,196.20001 c -30,0 -44.1,-28.5 -44.1,-47.7 V 79.800006 c 6.6,-8.7 24.6,-18.3 42,-18.3 33,0 47.1,37.5 47.1,69.900004 0,37.5 -18.9,64.8 -45,64.8 z M 679.19999,-93.3 h -75 v 15.6 h 75 z m -103.19998,71.4 v -82.8 c 0,-33.9 -21.6,-49.5 -43.8,-49.5 -18.3,0 -33.9,11.4 -52.5,36.3 -4.8,-24.6 -23.4,-36.3 -42.6,-36.3 -17.7,0 -33.3,10.8 -51.3,34.8 v -34.8 h -4.2 l -36.9,12 v 4.2 h 2.7 c 15.3,-0.3 19.5,6.9 19.5,19.2 v 96.9 c 0,13.5 -10.8,16.2 -22.2,18 V 0 h 63.3 v -3.9 c -11.4,-1.8 -22.2,-4.5 -22.2,-18 v -90.3 c 15.6,-17.7 27.9,-24.9 43.8,-24.9 18.3,0 32.4,9.9 32.4,35.1 v 80.1 c 0,13.5 -10.8,16.2 -22.2,18 V 0 h 63.3 v -3.9 c -11.4,-1.8 -22.2,-4.5 -22.2,-18 v -82.8 c 0,-2.4 0,-4.8 -0.3,-6.9 15.9,-18.3 28.2,-25.5 44.1,-25.5 18,0 32.4,9.9 32.4,35.1 v 80.1 c 0,13.5 -10.8,16.2 -22.2,18 V 0 h 63.3 v -3.9 c -11.4,-1.8 -22.2,-4.5 -22.2,-18 z m -315,26.1 c 36.9,0 68.7,-32.1 68.7,-81.9 0,-44.7 -27,-76.5 -66.9,-76.5 -36.3,0 -68.1,32.4 -68.1,82.5 0,44.4 27,75.9 66.3,75.9 z m 3.9,-10.2 c -38.1,0 -49.8,-48 -49.8,-75.3 0,-36.6 18,-62.7 44.7,-62.7 37.8,0 49.8,47.7 49.8,74.7 0,36.6 -18,63.3 -44.7,63.3 z M 110.4,-14.7 c -45,0 -76.5,-36.9 -76.5,-89.1 0,-57.3 25.5,-90.6 69.6,-90.6 28.5,0 45.3,20.7 51.9,43.5 l 21.9,-11.7 c -6.6,-23.4 -30,-42 -70.2,-42 -56.7,0 -96.6,45.9 -96.9,109.2 0,57.6 38.1,99.6 92.1,99.6 43.8,0 67.2,-30.9 75.6,-56.7 l -5.4,-1.5 c -7.8,21.9 -32.4,39.3 -62.1,39.3 z" />
        </g>
      </g>
    </g>
  </g>
</svg>
