<?xml version="1.0" encoding="UTF-8"?><svg xmlns="http://www.w3.org/2000/svg" viewBox="0 0 95.62 78.18"><defs><style>.d{fill:#ed4036;}</style></defs><g id="a"/><g id="b"><g id="c"><g><path class="d" d="M80.64,78.18H15.19c-.28,0-.5-.22-.5-.5v-12.5l-5.14-29.27c-.03-.2,.05-.39,.22-.5,.17-.11,.38-.11,.55,0l18.48,11.79L47.47,12.37c.17-.33,.71-.33,.88,0l18.68,34.82,18.48-11.79c.17-.11,.38-.1,.55,0,.17,.11,.25,.31,.22,.5l-5.15,29.35v12.41c0,.28-.22,.5-.49,.5Zm-64.94-1H80.14v-12l4.96-28.32-17.98,11.46c-.12,.07-.26,.1-.4,.06-.13-.04-.25-.12-.31-.25L47.91,13.66,29.42,48.14c-.07,.12-.18,.21-.31,.25-.13,.03-.28,.01-.4-.06l-17.98-11.46,4.95,28.24v12.09Z"/><path class="d" d="M80.64,65.68H15.19c-.28,0-.5-.22-.5-.5s.22-.5,.5-.5H80.64c.28,0,.5,.22,.5,.5s-.22,.5-.5,.5Z"/><path class="d" d="M89.06,37.06c-3.61,0-6.55-2.94-6.55-6.55s2.94-6.55,6.55-6.55,6.55,2.94,6.55,6.55-2.94,6.55-6.55,6.55Zm0-12.1c-3.06,0-5.55,2.49-5.55,5.55s2.49,5.55,5.55,5.55,5.55-2.49,5.55-5.55-2.49-5.55-5.55-5.55Z"/><path class="d" d="M6.55,37.06c-3.61,0-6.55-2.94-6.55-6.55s2.94-6.55,6.55-6.55,6.55,2.94,6.55,6.55-2.94,6.55-6.55,6.55Zm0-12.1c-3.06,0-5.55,2.49-5.55,5.55s2.49,5.55,5.55,5.55,5.55-2.49,5.55-5.55-2.49-5.55-5.55-5.55Z"/><path class="d" d="M47.91,13.1c-3.61,0-6.55-2.94-6.55-6.55s2.94-6.55,6.55-6.55,6.55,2.94,6.55,6.55-2.94,6.55-6.55,6.55Zm0-12.1c-3.06,0-5.55,2.49-5.55,5.55s2.49,5.55,5.55,5.55,5.55-2.49,5.55-5.55-2.49-5.55-5.55-5.55Z"/></g></g></g></svg>