<?xml version="1.0" encoding="UTF-8" standalone="no"?>
<svg
   xmlns:dc="http://purl.org/dc/elements/1.1/"
   xmlns:cc="http://creativecommons.org/ns#"
   xmlns:rdf="http://www.w3.org/1999/02/22-rdf-syntax-ns#"
   xmlns:svg="http://www.w3.org/2000/svg"
   xmlns="http://www.w3.org/2000/svg"
   id="svg3774"
   version="1.1"
   viewBox="0 0 224.57828 73.765602"
   height="73.765602mm"
   width="224.57828mm">
  <defs
     id="defs3768" />
  <metadata
     id="metadata3771">
    <rdf:RDF>
      <cc:Work
         rdf:about="">
        <dc:format>image/svg+xml</dc:format>
        <dc:type
           rdf:resource="http://purl.org/dc/dcmitype/StillImage" />
        <dc:title></dc:title>
      </cc:Work>
    </rdf:RDF>
  </metadata>
  <g
     transform="translate(4.9439018,-44.76006)"
     id="layer1">
    <g
       style="font-variant:normal;font-weight:300;font-stretch:normal;font-size:105.833px;font-family:'Reckless Light';-inkscape-font-specification:Reckless-Light;writing-mode:lr-tb;fill:#000000;fill-opacity:1;fill-rule:nonzero;stroke:none;stroke-width:0.352777"
       id="text847"
       aria-label="DAO.">
      <path
         d="m 213.2844,118.52566 c 3.59832,0 6.34998,-2.75166 6.34998,-6.34998 0,-3.49249 -2.43416,-6.34998 -6.34998,-6.34998 -3.49249,0 -6.34998,2.85749 -6.34998,6.34998 0,3.59832 2.85749,6.34998 6.34998,6.34998 z M 168.83431,44.865893 c -18.73244,0 -34.92489,14.81662 -34.92489,38.311546 0,19.155771 12.69996,35.348221 34.39572,35.348221 18.62661,0 34.81906,-14.81662 34.81906,-38.311545 0,-19.155773 -12.69996,-35.348222 -34.28989,-35.348222 z m -2.01083,3.598322 c 19.36744,-0.317499 27.62241,16.93328 27.93991,32.914063 0.52917,17.779944 -7.40831,33.231562 -24.55325,33.549062 -19.89661,0.3175 -27.62242,-17.568279 -27.93991,-33.019897 -0.42334,-18.203276 7.40831,-33.125729 24.55325,-33.443228 z M 123.9609,110.16485 96.97349,44.76006 h -2.222493 l -27.093248,65.51063 c -1.587495,3.70415 -4.656652,4.76248 -8.784139,5.39748 v 1.37583 h 22.648262 v -1.37583 c -9.842469,-0.74083 -10.900799,-3.49249 -8.149141,-10.2658 l 4.339153,-10.583301 h 31.855736 l 4.33915,10.583301 c 2.64582,6.24415 1.69333,9.41914 -8.67831,10.2658 v 1.37583 h 26.66992 v -1.37583 c -4.12749,-0.52917 -6.34998,-1.79916 -7.93748,-5.50332 z M 79.087713,91.432413 93.692667,56.084191 108.19179,91.432413 Z M 24.371839,46.347555 H -4.9439018 v 1.375829 c 6.561646,0.317499 9.630803,1.799161 9.630803,8.254974 v 51.329002 c 0,6.66748 -3.069157,8.04331 -9.630803,8.36081 V 117.044 H 25.959334 c 17.568278,0 35.454055,-13.33496 35.454055,-37.782382 0,-17.885777 -11.006632,-32.914063 -37.04155,-32.914063 z m 1.587495,67.309785 c -10.371634,0 -13.969956,-0.95249 -13.969956,-6.45581 V 49.734211 h 10.5833 c 20.425769,0 30.585737,15.87495 30.585737,31.961566 0,20.531603 -10.371634,31.961563 -27.199081,31.961563 z"
         style="stroke-width:0.352777"
         id="path4351" />
    </g>
  </g>
</svg>
