<?xml version="1.0" encoding="UTF-8" standalone="no"?>
<svg
   xmlns:dc="http://purl.org/dc/elements/1.1/"
   xmlns:cc="http://creativecommons.org/ns#"
   xmlns:rdf="http://www.w3.org/1999/02/22-rdf-syntax-ns#"
   xmlns:svg="http://www.w3.org/2000/svg"
   xmlns="http://www.w3.org/2000/svg"
   id="svg1003"
   version="1.1"
   viewBox="0 0 143.65883 79.375001"
   height="79.375mm"
   width="143.65883mm">
  <defs
     id="defs997">
    <clipPath
       clipPathUnits="userSpaceOnUse"
       id="clipPath957">
      <path
         d="M 0.021,0 H 1440 V 874.844 H 0.021 Z"
         id="path955" />
    </clipPath>
    <clipPath
       clipPathUnits="userSpaceOnUse"
       id="clipPath965">
      <path
         d="M -98.0279,450.232 H 750.079 V -105.767 H -98.0279 Z"
         id="path963" />
    </clipPath>
  </defs>
  <metadata
     id="metadata1000">
    <rdf:RDF>
      <cc:Work
         rdf:about="">
        <dc:format>image/svg+xml</dc:format>
        <dc:type
           rdf:resource="http://purl.org/dc/dcmitype/StillImage" />
        <dc:title></dc:title>
      </cc:Work>
    </rdf:RDF>
  </metadata>
  <g
     transform="translate(-45.22725,40.242502)"
     id="layer1">
    <g
       transform="matrix(0.54554423,0,0,0.54554423,20.553785,-18.288437)"
       id="g1632">
      <g
         clip-path="url(#clipPath957)"
         id="g953"
         transform="matrix(0.35277777,0,0,-0.35277777,45.219842,105.25441)">
        <g
           id="g959">
          <g
             id="g961" />
          <g
             id="g975">
            <g
               id="g973"
               opacity="0.330002"
               clip-path="url(#clipPath965)">
              <g
                 aria-label="Hdden
Forms"
                 transform="matrix(1,0,0,-1,-98.0283,200.0322)"
                 id="text971"
                 style="font-variant:normal;font-weight:300;font-stretch:normal;font-size:300px;font-family:'Reckless Light';-inkscape-font-specification:Reckless-Light;writing-mode:lr-tb;fill:#000000;fill-opacity:1;fill-rule:nonzero;stroke:none">
                <path
                   d="m 216,-196.5 v -3.9 h -75 v 3.9 c 18.6,0.9 27,5.1 27,23.4 v 65.4 H 57.6 v -65.4 c 0,-18.3 8.4,-22.5 27,-23.4 v -3.9 h -75 v 3.9 c 18.6,0.9 27.3,5.1 27.3,23.4 v 145.5 c 0,18.9 -8.7,22.8 -27.3,23.7 V 0 h 75 V -3.9 C 66,-4.8 57.6,-8.7 57.6,-27.6 V -98.1 H 168 v 70.5 c 0,18.9 -8.4,22.8 -27,23.7 V 0 h 75 v -3.9 c -18.6,-0.9 -27,-4.8 -27,-23.7 v -145.5 c 0,-18.3 8.4,-22.5 27,-23.4 z"
                   id="path1594" />
                <path
                   d="m 374.10001,-11.7 c -14.4,0 -18.9,-5.7 -18.9,-19.2 v -181.5 h -4.2 l -36.9,12 v 3.9 h 3.3 c 14.4,0 18.9,5.7 18.9,19.5 v 37.8 c -8.1,-8.4 -18.6,-15 -36,-15 -37.8,0 -73.2,30.6 -73.2,84.3 0,41.1 24.3,74.1 60,74.1 23.4,0 40.8,-16.2 49.2,-27.3 V 4.2 h 4.2 l 36.6,-12 v -3.9 z m -37.8,-16.8 c -7.5,8.4 -24.9,17.4 -42,17.4 -33,0 -46.8,-37.8 -46.8,-70.2 0,-37.2 18.6,-64.5 44.7,-64.5 30,0 44.1,28.2 44.1,47.7 z"
                   id="path1596" />
                <path
                   d="m 533.70001,-11.7 c -14.4,0 -18.9,-5.7 -18.9,-19.2 v -181.5 h -4.2 l -36.9,12 v 3.9 h 3.3 c 14.4,0 18.9,5.7 18.9,19.5 v 37.8 c -8.1,-8.4 -18.6,-15 -36,-15 -37.8,0 -73.2,30.6 -73.2,84.3 0,41.1 24.3,74.1 60,74.1 23.4,0 40.8,-16.2 49.2,-27.3 V 4.2 h 4.2 l 36.6,-12 v -3.9 z m -37.8,-16.8 c -7.5,8.4 -24.9,17.4 -42,17.4 -33,0 -46.8,-37.8 -46.8,-70.2 0,-37.2 18.6,-64.5 44.7,-64.5 30,0 44.1,28.2 44.1,47.7 z"
                   id="path1598" />
                <path
                   d="m 617.39999,-154.2 c -39.6,0 -69,30.6 -69,83.4 0,41.1 26.4,75 64.8,75 28.5,0 50.1,-18.6 57.9,-42.3 l -3.3,-1.5 c -10.2,12.9 -23.7,25.8 -45.9,25.8 -32.4,0 -53.7,-27.6 -54.6,-70.5 h 105 c 0,-36.3 -18.6,-69.9 -54.9,-69.9 z m -4.8,9.6 c 26.7,0 36,22.8 38.1,51.9 h -83.1 c 2.7,-30 16.2,-51.9 45,-51.9 z"
                   id="path1600" />
                <path
                   d="m 822.3,-21.9 v -82.8 c 0,-33.9 -21.6,-49.5 -43.8,-49.5 -17.7,0 -33.3,10.8 -51.3,34.8 v -34.8 H 723 l -36.9,12 v 4.2 h 2.7 c 15.3,-0.3 19.5,6.9 19.5,19.2 v 96.9 c 0,13.5 -10.8,16.2 -22.2,18 V 0 h 63.3 v -3.9 c -11.4,-1.8 -22.2,-4.5 -22.2,-18 v -90.3 c 15.6,-17.7 27.9,-24.9 43.8,-24.9 18.3,0 32.4,9.9 32.4,35.1 v 80.1 c 0,13.5 -10.8,16.2 -22.2,18 V 0 h 63.3 v -3.9 c -11.4,-1.8 -22.2,-4.5 -22.2,-18 z"
                   id="path1602" />
                <path
                   d="M 217.8,19.499994 H 68.1 v 3.9 c 18.6,0.9 27.3,5.1 27.3,23.4 V 192.29999 c 0,18.9 -8.7,22.8 -27.3,23.7 v 3.9 h 84 v -3.9 c -21,-0.9 -36,-5.1 -36,-23.7 v -70.5 h 37.5 c 18.9,0 23.1,8.7 24,27.6 h 3.9 V 84.899994 h -3.9 c -0.9,18.899996 -5.1,27.599996 -24,27.599996 h -37.5 l 0.3,-83.399996 H 180 c 25.8,0 29.4,11.1 36.9,35.7 h 3.9 z"
                   id="path1604" />
                <path
                   d="m 282.00001,224.09999 c 36.9,0 68.7,-32.1 68.7,-81.9 0,-44.699996 -27,-76.499996 -66.9,-76.499996 -36.3,0 -68.1,32.4 -68.1,82.499996 0,44.4 27,75.9 66.3,75.9 z m 3.9,-10.2 c -38.1,0 -49.8,-48 -49.8,-75.3 0,-36.6 18,-62.699996 44.7,-62.699996 37.8,0 49.8,47.699996 49.8,74.699996 0,36.6 -18,63.3 -44.7,63.3 z"
                   id="path1606" />
                <path
                   d="m 447.90001,65.999994 c -15.6,0.3 -30,14.1 -41.1,44.099996 V 65.699994 h -4.2 l -36.9,12 v 4.2 h 2.7 c 15.3,-0.3 19.5,6.9 19.5,19.199996 v 95.4 c 0,12 -5.1,16.5 -22.2,19.5 v 3.9 h 72 v -3.9 c -23.4,-3 -30.9,-7.5 -30.9,-19.5 v -78 c 9,-21.599996 23.4,-33.899996 39.6,-34.499996 6,-0.3 12.3,1.8 17.7,4.2 l 2.4,-20.7 c -4.5,-1.2 -10.5,-1.8 -18.6,-1.5 z"
                   id="path1608" />
                <path
                   d="m 705.00001,197.99999 v -82.8 c 0,-33.899996 -21.6,-49.499996 -43.8,-49.499996 -18.3,0 -33.9,11.4 -52.5,36.299996 -4.8,-24.599996 -23.4,-36.299996 -42.6,-36.299996 -17.7,0 -33.3,10.8 -51.3,34.799996 V 65.699994 h -4.2 l -36.9,12 v 4.2 h 2.7 c 15.3,-0.3 19.5,6.9 19.5,19.199996 v 96.9 c 0,13.5 -10.8,16.2 -22.2,18 v 3.9 h 63.3 v -3.9 c -11.4,-1.8 -22.2,-4.5 -22.2,-18 v -90.3 c 15.6,-17.699996 27.9,-24.899996 43.8,-24.899996 18.3,0 32.4,9.9 32.4,35.099996 v 80.1 c 0,13.5 -10.8,16.2 -22.2,18 v 3.9 h 63.3 v -3.9 c -11.4,-1.8 -22.2,-4.5 -22.2,-18 v -82.8 c 0,-2.4 0,-4.8 -0.3,-6.9 15.9,-18.299996 28.2,-25.499996 44.1,-25.499996 18,0 32.4,9.9 32.4,35.099996 v 80.1 c 0,13.5 -10.8,16.2 -22.2,18 v 3.9 h 63.3 v -3.9 c -11.4,-1.8 -22.2,-4.5 -22.2,-18 z"
                   id="path1610" />
                <path
                   d="m 788.7,65.699994 c -30,0 -49.5,16.5 -49.2,41.699996 0.6,45.9 85.8,36.9 86.4,78.9 0.3,15 -12.3,29.1 -33.3,29.1 -17.7,0 -31.8,-13.2 -36.6,-34.8 l -22.2,13.2 c 11.7,19.5 33.6,30.3 56.7,30.3 32.7,0 53.4,-20.7 52.8,-45.9 -1.2,-53.7 -87.6,-38.1 -87.6,-78 0,-15.299996 12.6,-25.799996 32.1,-25.799996 16.8,0 28.8,11.4 33.9,30.599996 L 843,90.599994 c -5.7,-9.3 -20.1,-24.9 -54.3,-24.9 z"
                   id="path1612" />
              </g>
            </g>
          </g>
        </g>
      </g>
    </g>
  </g>
</svg>
