<?xml version="1.0" encoding="UTF-8"?><svg xmlns="http://www.w3.org/2000/svg" viewBox="0 0 47.46 87.45"><defs><style>.d{fill:#716558;}</style></defs><g id="a"/><g id="b"><g id="c"><g><path class="d" d="M15.81,87.43h-1v-11.36c-.29-1.81-2.19-3.45-3.72-4.77-.21-.18-.42-.36-.62-.54-1.68-1.48-3.58-3.16-5.17-5.14C1.88,61.37,0,56.28,0,51.31v-15.57c0-3.23,2.63-5.86,5.86-5.86s5.86,2.63,5.86,5.86v11.23c.19,1.83,.62,3.68,.93,3.93l-.56,.83c-.87-.58-1.25-3.48-1.37-4.71v-11.28c0-2.68-2.18-4.86-4.86-4.86s-4.86,2.18-4.86,4.86v15.57c0,4.75,1.8,9.61,5.08,13.69,1.54,1.92,3.4,3.56,5.05,5.02,.19,.17,.4,.35,.61,.53,1.65,1.42,3.71,3.19,4.06,5.45v11.44Z"/><path class="d" d="M9.76,31.59h-1V9.14c0-2.86,2.33-5.19,5.19-5.19s5.19,2.33,5.19,5.19h-1c0-2.31-1.88-4.19-4.19-4.19s-4.19,1.88-4.19,4.19V31.59Z"/><path class="d" d="M28.5,34.84h-1V5.19c0-2.31-1.88-4.19-4.19-4.19s-4.19,1.88-4.19,4.19v27.36h-1V5.19c0-2.86,2.33-5.19,5.19-5.19s5.19,2.33,5.19,5.19v29.65Z"/><path class="d" d="M37.87,38.03h-1V9.14c0-2.31-1.88-4.19-4.19-4.19s-4.19,1.88-4.19,4.19h-1c0-2.86,2.33-5.19,5.19-5.19s5.19,2.33,5.19,5.19v28.89Z"/><path class="d" d="M39.81,87.45l-1-.04,.64-15.57c0-.13,.06-.25,.15-.34,.18-.18,.35-.37,.52-.56l.12-.14c5.26-6.48,5.9-14.82,6.14-23.52,.16-5.82,.07-11.74-.03-17.47-.06-3.47-.11-7.06-.11-10.6,0-2.31-1.88-4.19-4.19-4.19s-4.19,1.88-4.19,4.19v18.81h-1V19.22c0-2.86,2.33-5.19,5.19-5.19s5.19,2.33,5.19,5.19c0,3.53,.06,7.11,.11,10.58,.09,5.74,.19,11.67,.03,17.51-.24,8.52-.92,17.41-6.32,24.07l-.18,.22c-.14,.17-.29,.33-.44,.48l-.63,15.38Z"/><path class="d" d="M25.92,49.84c-1.2-9.49-14.53-8.64-14.66-8.63l-.07-1c.15-.01,14.4-.94,15.72,9.5l-.99,.13Z"/></g></g></g></svg>