<?xml version="1.0" encoding="UTF-8"?><svg xmlns="http://www.w3.org/2000/svg" viewBox="0 0 89.81 77.78"><defs><style>.d{fill:lime;}</style></defs><g id="a"/><g id="b"><g id="c"><g><g><path class="d" d="M53.69,53.13h-5.44c-.28,0-.5-.22-.5-.49v-9.5c0-2.01-1.44-3.06-2.86-3.06-.74,0-3.14,.23-3.14,3.14v9.42c0,.27-.22,.49-.5,.49h-5.44c-.28,0-.5-.22-.5-.49V25.14c0-.27,.22-.49,.5-.49h5.44c.28,0,.5,.22,.5,.49v10.72c1.29-1.36,3.33-1.9,4.62-1.9,4.97,0,7.81,3.28,7.81,8.99v9.69c0,.27-.22,.49-.5,.49Zm-4.94-.98h4.44v-9.2c0-3.66-1.18-8.02-6.81-8.02-1.43,0-3.96,.77-4.65,2.83-.08,.23-.31,.36-.55,.33-.24-.04-.42-.24-.42-.48v-11.98h-4.44v26.52h4.44v-8.93c0-3.03,2.23-4.11,4.14-4.11s3.86,1.41,3.86,4.03v9.01Z"/><path class="d" d="M50.67,31.85c-2.15,0-3.9-1.62-3.9-3.62s1.75-3.58,3.9-3.58,3.82,1.57,3.82,3.58-1.68,3.62-3.82,3.62Zm0-6.22c-1.6,0-2.9,1.17-2.9,2.6s1.3,2.64,2.9,2.64,2.82-1.16,2.82-2.64-1.24-2.6-2.82-2.6Z"/></g><path class="d" d="M67.36,77.78H22.45L0,38.89,22.45,0h44.91l22.45,38.89-22.45,38.89Zm-44.33-1h43.75l21.88-37.89L66.78,1H23.03L1.15,38.89l21.88,37.89Z"/><path class="d" d="M62.7,69.71H27.11L9.32,38.89,27.11,8.07H62.7l17.79,30.82-17.79,30.82Zm-35.01-1H62.12l17.22-29.82L62.12,9.07H27.69L10.47,38.89l17.22,29.82Z"/></g></g></g></svg>