<?xml version="1.0" encoding="UTF-8"?><svg xmlns="http://www.w3.org/2000/svg" viewBox="0 0 212.53 87.43"><defs><style>.d{fill:none;stroke:#fff;stroke-linecap:round;stroke-linejoin:round;stroke-width:3px;}</style></defs><g id="a"/><g id="b"><g id="c"><path class="d" d="M96.41,33.53C80.11,14.62,51.81-7.18,25.87,5.05,11.25,11.94,1.5,27.43,1.5,43.58c0,23.34,18.92,42.25,42.25,42.25,12.72,0,26.83-8.3,35.96-16.33C104.18,48,125.92,18.93,156.27,5.46c24.34-10.8,49.11,3.63,54.03,29.43,3.53,18.51-5.87,37.92-22.7,46.47-8.66,4.4-19.46,6.06-28.8,2.99-6.05-1.99-11.62-5.31-16.75-9.03-7.87-5.71-14.87-12.59-21.31-19.85"/></g></g></svg>