<?xml version="1.0" encoding="UTF-8" standalone="no"?>
<svg
   xmlns:dc="http://purl.org/dc/elements/1.1/"
   xmlns:cc="http://creativecommons.org/ns#"
   xmlns:rdf="http://www.w3.org/1999/02/22-rdf-syntax-ns#"
   xmlns:svg="http://www.w3.org/2000/svg"
   xmlns="http://www.w3.org/2000/svg"
   id="svg5649"
   version="1.1"
   viewBox="0 0 16.744394 30.851545"
   height="30.851545mm"
   width="16.744394mm">
  <defs
     id="defs5643" />
  <metadata
     id="metadata5646">
    <rdf:RDF>
      <cc:Work
         rdf:about="">
        <dc:format>image/svg+xml</dc:format>
        <dc:type
           rdf:resource="http://purl.org/dc/dcmitype/StillImage" />
        <dc:title></dc:title>
      </cc:Work>
    </rdf:RDF>
  </metadata>
  <g
     transform="translate(-43.788519,-74.532554)"
     id="layer1">
    <g
       transform="matrix(0.35277777,0,0,-0.35277777,-250.46931,511.6742)"
       id="g5620">
      <g
         transform="translate(849.9247,1151.709)"
         id="g1017">
        <path
           id="path1019"
           style="fill:#f9ae40;fill-opacity:1;fill-rule:nonzero;stroke:none"
           d="m 0,0 h -1 v 11.361 c -0.285,1.814 -2.189,3.452 -3.719,4.768 -0.215,0.184 -0.424,0.364 -0.62,0.537 -1.678,1.48 -3.579,3.158 -5.17,5.141 -3.417,4.26 -5.299,9.345 -5.299,14.319 V 51.7 c 0,3.233 2.629,5.862 5.862,5.862 3.232,0 5.861,-2.629 5.861,-5.862 V 40.467 c 0.186,-1.826 0.621,-3.684 0.929,-3.926 L -3.713,35.71 c -0.87,0.58 -1.247,3.485 -1.37,4.707 L -5.085,51.7 c 0,2.681 -2.181,4.862 -4.861,4.862 -2.681,0 -4.862,-2.181 -4.862,-4.862 V 36.126 c 0,-4.747 1.804,-9.61 5.079,-13.693 1.537,-1.916 3.404,-3.564 5.051,-5.017 0.194,-0.171 0.399,-0.347 0.611,-0.529 1.654,-1.424 3.714,-3.195 4.061,-5.449 z" />
      </g>
      <g
         transform="translate(843.8729,1207.5508)"
         id="g1021">
        <path
           id="path1023"
           style="fill:#f9ae40;fill-opacity:1;fill-rule:nonzero;stroke:none"
           d="m 0,0 h -1 v 22.449 c 0,2.859 2.326,5.185 5.186,5.185 2.858,0 5.185,-2.326 5.185,-5.185 h -1 c 0,2.307 -1.878,4.185 -4.185,4.185 C 1.877,26.634 0,24.756 0,22.449 Z" />
      </g>
      <g
         transform="translate(862.6141,1204.3027)"
         id="g1025">
        <path
           id="path1027"
           style="fill:#f9ae40;fill-opacity:1;fill-rule:nonzero;stroke:none"
           d="m 0,0 h -1 v 29.654 c 0,2.308 -1.877,4.185 -4.185,4.185 -2.308,0 -4.186,-1.877 -4.186,-4.185 V 2.298 h -1 v 27.356 c 0,2.859 2.327,5.185 5.186,5.185 2.859,0 5.185,-2.326 5.185,-5.185 z" />
      </g>
      <g
         transform="translate(871.9847,1201.1118)"
         id="g1029">
        <path
           id="path1031"
           style="fill:#f9ae40;fill-opacity:1;fill-rule:nonzero;stroke:none"
           d="m 0,0 h -1 v 28.888 c 0,2.307 -1.877,4.185 -4.185,4.185 -2.308,0 -4.186,-1.878 -4.186,-4.185 h -1 c 0,2.859 2.327,5.185 5.186,5.185 2.859,0 5.185,-2.326 5.185,-5.185 z" />
      </g>
      <g
         transform="translate(873.9232,1151.6885)"
         id="g1033">
        <path
           id="path1035"
           style="fill:#f9ae40;fill-opacity:1;fill-rule:nonzero;stroke:none"
           d="m 0,0 -0.999,0.041 0.638,15.574 c 0.006,0.128 0.059,0.249 0.151,0.338 0.182,0.178 0.355,0.365 0.52,0.559 l 0.118,0.14 c 5.257,6.483 5.903,14.824 6.143,23.524 0.161,5.819 0.066,11.74 -0.026,17.467 -0.055,3.472 -0.112,7.062 -0.112,10.595 0,2.308 -1.878,4.185 -4.186,4.185 -2.308,0 -4.185,-1.877 -4.185,-4.185 V 49.423 h -1 v 18.815 c 0,2.859 2.326,5.185 5.185,5.185 2.859,0 5.186,-2.326 5.186,-5.185 0,-3.525 0.057,-7.111 0.112,-10.579 C 7.637,51.921 7.732,45.989 7.571,40.148 7.335,31.624 6.654,22.743 1.254,16.082 L 1.072,15.864 C 0.929,15.697 0.783,15.535 0.63,15.379 Z" />
      </g>
      <g
         transform="translate(860.0345,1189.3042)"
         id="g1037">
        <path
           id="path1039"
           style="fill:#f9ae40;fill-opacity:1;fill-rule:nonzero;stroke:none"
           d="m 0,0 c -1.202,9.494 -14.526,8.637 -14.658,8.628 l -0.073,0.997 c 0.145,0.014 14.402,0.936 15.723,-9.499 z" />
      </g>
    </g>
  </g>
</svg>
