<?xml version="1.0" encoding="UTF-8" standalone="no"?>
<svg
   xmlns:dc="http://purl.org/dc/elements/1.1/"
   xmlns:cc="http://creativecommons.org/ns#"
   xmlns:rdf="http://www.w3.org/1999/02/22-rdf-syntax-ns#"
   xmlns:svg="http://www.w3.org/2000/svg"
   xmlns="http://www.w3.org/2000/svg"
   xmlns:sodipodi="http://sodipodi.sourceforge.net/DTD/sodipodi-0.dtd"
   xmlns:inkscape="http://www.inkscape.org/namespaces/inkscape"
   inkscape:version="1.0 (4035a4f, 2020-05-01)"
   sodipodi:docname="numero-3.svg"
   width="26.458334mm"
   height="26.458334mm"
   viewBox="0 0 26.458334 26.458334"
   version="1.1"
   id="svg7622">
  <sodipodi:namedview
     inkscape:current-layer="svg7622"
     inkscape:window-maximized="1"
     inkscape:window-y="23"
     inkscape:window-x="0"
     inkscape:cy="157.4097"
     inkscape:cx="217.78832"
     inkscape:zoom="1.44073"
     showgrid="false"
     id="namedview9417"
     inkscape:window-height="959"
     inkscape:window-width="1920"
     inkscape:pageshadow="2"
     inkscape:pageopacity="0"
     guidetolerance="10"
     gridtolerance="10"
     objecttolerance="10"
     borderopacity="1"
     bordercolor="#666666"
     pagecolor="#ffffff" />
  <defs
     id="defs7616">
    <clipPath
       id="clipPath895"
       clipPathUnits="userSpaceOnUse">
      <path
         id="path893"
         d="M 696.36,282.812 H 923.457 V -53.1868 H 696.36 Z" />
    </clipPath>
  </defs>
  <metadata
     id="metadata7619">
    <rdf:RDF>
      <cc:Work
         rdf:about="">
        <dc:format>image/svg+xml</dc:format>
        <dc:type
           rdf:resource="http://purl.org/dc/dcmitype/StillImage" />
        <dc:title />
      </cc:Work>
    </rdf:RDF>
  </metadata>
  <g
     id="layer1"
     transform="translate(-56.908105,-121.92)">
    <g
       id="g889"
       transform="matrix(0.12671616,0,0,-0.12671616,-32.510471,151.97863)">
      <g
         id="g891" />
      <g
         id="g903">
        <g
           id="g901"
           opacity="0.350006"
           clip-path="url(#clipPath895)">
          <g
             style="font-variant:normal;font-weight:300;font-stretch:normal;font-size:300px;font-family:'Reckless Light';-inkscape-font-specification:Reckless-Light;writing-mode:lr-tb;fill:#000000;fill-opacity:1;fill-rule:nonzero;stroke:none"
             id="text899"
             transform="matrix(1,0,0,-1,696.3604,32.6123)"
             aria-label="③">
            <path
               d="m 113.4,4.2 c 57.6,0 104.7,-47.1 104.7,-104.4 0,-57.3 -47.1,-104.4 -104.7,-104.4 -57.3,0 -104.1,47.1 -104.1,104.4 0,57.3 46.8,104.4 104.1,104.4 z m 0.3,-9.6 c -52.2,0 -94.5,-42.3 -94.5,-94.5 0,-52.5 42.3,-95.1 94.5,-95.1 51.9,0 94.8,42.6 94.8,95.1 0,52.2 -42.9,94.5 -94.8,94.5 z m -4.2,-162 c -17.7,0.3 -30.3,11.7 -34.5,26.7 l 4.5,1.2 c 4.8,-9.6 15,-15.9 25.5,-15.9 11.4,0 20.4,6.9 21,18.6 0.9,13.2 -10.2,24.3 -24.6,25.8 l -6.3,0.9 0.3,6.3 h 6.9 c 19.5,0 31.8,11.1 31.8,28.5 0,14.7 -9.6,25.2 -23.1,25.2 -13.5,0 -24.9,-11.1 -26.1,-26.1 l -16.5,9 c 4.5,15.6 20.7,24.9 40.5,24.9 28.8,0 45,-16.8 45,-36.3 0,-18.6 -13.8,-29.7 -33.6,-31.8 15.3,-4.8 23.7,-16.8 23.4,-30 -0.3,-16.8 -15.6,-27.3 -34.2,-27 z"
               id="path9980" />
          </g>
        </g>
      </g>
    </g>
  </g>
</svg>
