<?xml version="1.0" encoding="UTF-8" standalone="no"?>
<svg
   xmlns:dc="http://purl.org/dc/elements/1.1/"
   xmlns:cc="http://creativecommons.org/ns#"
   xmlns:rdf="http://www.w3.org/1999/02/22-rdf-syntax-ns#"
   xmlns:svg="http://www.w3.org/2000/svg"
   xmlns="http://www.w3.org/2000/svg"
   xmlns:sodipodi="http://sodipodi.sourceforge.net/DTD/sodipodi-0.dtd"
   xmlns:inkscape="http://www.inkscape.org/namespaces/inkscape"
   inkscape:version="1.0 (4035a4f, 2020-05-01)"
   sodipodi:docname="numero-2.svg"
   width="26.458334mm"
   height="26.458334mm"
   viewBox="0 0 26.458334 26.458334"
   version="1.1"
   id="svg6921">
  <sodipodi:namedview
     inkscape:current-layer="svg6921"
     inkscape:window-maximized="1"
     inkscape:window-y="23"
     inkscape:window-x="0"
     inkscape:cy="97.31825"
     inkscape:cx="143.23518"
     inkscape:zoom="2.0375"
     showgrid="false"
     id="namedview8838"
     inkscape:window-height="959"
     inkscape:window-width="1920"
     inkscape:pageshadow="2"
     inkscape:pageopacity="0"
     guidetolerance="10"
     gridtolerance="10"
     objecttolerance="10"
     borderopacity="1"
     bordercolor="#666666"
     pagecolor="#ffffff" />
  <defs
     id="defs6915">
    <clipPath
       id="clipPath879"
       clipPathUnits="userSpaceOnUse">
      <path
         id="path877"
         d="M 363.236,492.446 H 590.333 V 156.447 H 363.236 Z" />
    </clipPath>
  </defs>
  <metadata
     id="metadata6918">
    <rdf:RDF>
      <cc:Work
         rdf:about="">
        <dc:format>image/svg+xml</dc:format>
        <dc:type
           rdf:resource="http://purl.org/dc/dcmitype/StillImage" />
        <dc:title />
      </cc:Work>
    </rdf:RDF>
  </metadata>
  <g
     id="layer1"
     transform="translate(-69.003335,-111.33667)">
    <g
       id="g873"
       transform="matrix(0.12671616,0,0,-0.12671616,21.796966,167.95929)">
      <g
         id="g875" />
      <g
         id="g887">
        <g
           id="g885"
           opacity="0.350006"
           clip-path="url(#clipPath879)">
          <g
             style="font-variant:normal;font-weight:300;font-stretch:normal;font-size:300px;font-family:'Reckless Light';-inkscape-font-specification:Reckless-Light;writing-mode:lr-tb;fill:#000000;fill-opacity:1;fill-rule:nonzero;stroke:none"
             id="text883"
             transform="matrix(1,0,0,-1,363.2363,242.2461)"
             aria-label="②">
            <path
               d="m 113.4,4.2 c 57.6,0 104.7,-47.1 104.7,-104.4 0,-57.3 -47.1,-104.4 -104.7,-104.4 -57.3,0 -104.1,47.1 -104.1,104.4 0,57.3 46.8,104.4 104.1,104.4 z m 0.3,-9.6 c -52.2,0 -94.5,-42.3 -94.5,-94.5 0,-52.5 42.3,-95.1 94.5,-95.1 51.9,0 94.8,42.6 94.8,95.1 0,52.2 -42.9,94.5 -94.8,94.5 z m 0.3,-162 c -21.9,0 -35.1,15 -39,28.5 l 5.1,1.8 c 4.8,-9.6 13.2,-17.1 27.3,-17.1 14.4,0 23.1,8.4 23.1,24.3 0,15 -9.3,29.4 -31.2,51.3 l -26.1,26.1 v 7.8 h 81 l 1.8,-35.7 h -5.1 c -5.7,16.5 -9.3,20.1 -23.1,20.1 H 90.9 c 30.9,-27.9 59.4,-47.7 59.4,-72.3 0,-21 -13.5,-34.8 -36.3,-34.8 z"
               id="path9401" />
          </g>
        </g>
      </g>
    </g>
  </g>
</svg>
