<?xml version="1.0" encoding="UTF-8"?><svg xmlns="http://www.w3.org/2000/svg" viewBox="0 0 119.66 119.66"><defs><style>.d{fill:lime;}</style></defs><g id="a"/><g id="b"><g id="c"><g><path class="d" d="M59.83,119.66C26.84,119.66,0,92.82,0,59.83S26.84,0,59.83,0s59.83,26.84,59.83,59.83-26.84,59.83-59.83,59.83ZM59.83,1.38C27.6,1.38,1.38,27.6,1.38,59.83s26.22,58.45,58.45,58.45,58.45-26.22,58.45-58.45S92.06,1.38,59.83,1.38Z"/><g><g><circle class="d" cx="59.83" cy="18.3" r="2.29"/><circle class="d" cx="59.83" cy="101.36" r="2.29"/></g><g><circle class="d" cx="101.36" cy="59.83" r="2.29"/><circle class="d" cx="18.3" cy="59.83" r="2.29"/></g><g><circle class="d" cx="89.19" cy="89.19" r="2.29"/><circle class="d" cx="30.46" cy="30.46" r="2.29"/></g><g><circle class="d" cx="30.46" cy="89.19" r="2.29"/><circle class="d" cx="89.19" cy="30.46" r="2.29"/></g></g><circle class="d" cx="59.83" cy="59.83" r="1.94"/><rect class="d" x="59.14" y="30.46" width="1.38" height="55.21"/></g></g></g></svg>