<?xml version="1.0" encoding="UTF-8" standalone="no"?>
<svg
   xmlns:dc="http://purl.org/dc/elements/1.1/"
   xmlns:cc="http://creativecommons.org/ns#"
   xmlns:rdf="http://www.w3.org/1999/02/22-rdf-syntax-ns#"
   xmlns:svg="http://www.w3.org/2000/svg"
   xmlns="http://www.w3.org/2000/svg"
   id="svg1217"
   version="1.1"
   viewBox="0 0 136.84148 79.375"
   height="79.375mm"
   width="136.84148mm">
  <defs
     id="defs1211">
    <clipPath
       clipPathUnits="userSpaceOnUse"
       id="clipPath917">
      <path
         d="M 671.919,318.708 H 1440 V 874.844 H 671.919 Z"
         id="path915" />
    </clipPath>
    <clipPath
       clipPathUnits="userSpaceOnUse"
       id="clipPath925">
      <path
         d="M 667.304,850.511 H 1448.8 V 514.513 H 667.304 Z"
         id="path923" />
    </clipPath>
    <clipPath
       clipPathUnits="userSpaceOnUse"
       id="clipPath941">
      <path
         d="M 920.273,624.652 H 1745.27 V 288.653 H 920.273 Z"
         id="path939" />
    </clipPath>
  </defs>
  <metadata
     id="metadata1214">
    <rdf:RDF>
      <cc:Work
         rdf:about="">
        <dc:format>image/svg+xml</dc:format>
        <dc:type
           rdf:resource="http://purl.org/dc/dcmitype/StillImage" />
        <dc:title></dc:title>
      </cc:Work>
    </rdf:RDF>
  </metadata>
  <g
     transform="translate(-2.2786769,2.4498488)"
     id="layer1">
    <g
       transform="matrix(0.17939463,0,0,-0.17939463,-119.20812,143.34623)"
       id="g911">
      <g
         id="g913"
         clip-path="url(#clipPath917)">
        <g
           id="g919">
          <g
             id="g921" />
          <g
             id="g933">
            <g
               clip-path="url(#clipPath925)"
               opacity="0.330002"
               id="g931">
              <g
                 style="font-variant:normal;font-weight:300;font-stretch:normal;font-size:300px;font-family:'Reckless Light';-inkscape-font-specification:Reckless-Light;writing-mode:lr-tb;fill:#000000;fill-opacity:1;fill-rule:nonzero;stroke:none"
                 id="text929"
                 transform="matrix(1,0,0,-1,667.3042,600.3115)"
                 aria-label="Utility">
                <path
                   id="path1824"
                   d="m 213.3,-200.4 h -64.2 v 3.9 c 18.3,0.9 27,5.1 27,23.4 v 97.8 c 0,43.2 -19.2,68.4 -55.5,68.4 -39.3,0 -62.7,-29.4 -62.7,-66.9 v -99.3 c 0,-18.3 8.7,-22.5 26.7,-23.4 v -3.9 H 9.9 v 3.9 c 18,0.9 27,5.1 27,23.4 v 103.8 c 0,48.3 30.6,73.5 77.1,73.5 46.2,0 72.6,-28.2 72.6,-75.6 v -101.7 c 0,-18.3 8.4,-22.5 26.7,-23.4 z" />
                <path
                   id="path1826"
                   d="m 306.89999,-17.4 c -7.5,5.4 -13.5,8.4 -22.8,8.4 -14.7,0 -25.5,-6.9 -25.5,-29.1 v -103.2 h 47.7 v -8.7 h -47.7 v -41.4 l -18.9,10.2 v 31.2 h -25.2 v 8.7 h 25.2 v 102 c 0,30.3 12.3,43.5 35.1,43.5 15.9,0 25.5,-9.9 34.8,-17.4 z" />
                <path
                   id="path1828"
                   d="m 351.00001,-179.1 c 8.4,0 14.7,-6.6 14.7,-15.3 0,-8.7 -6.3,-15.3 -14.7,-15.3 -9,0 -15.3,6.6 -15.3,15.3 0,8.7 6.3,15.3 15.3,15.3 z m 9.3,157.2 v -132.3 h -4.2 l -36.9,12 v 4.2 h 2.7 c 15.3,-0.3 19.5,6.9 19.5,19.2 v 96.9 c 0,13.5 -10.8,16.2 -22.2,18 V 0 h 63.3 v -3.9 c -11.4,-1.8 -22.2,-4.5 -22.2,-18 z" />
                <path
                   id="path1830"
                   d="m 436.80001,-212.4 h -4.2 l -36.9,12 v 3.9 h 2.7 c 15.3,0 19.5,7.2 19.5,19.5 v 155.1 c 0,13.5 -10.8,16.2 -22.2,18 V 0 h 63.3 v -3.9 c -11.4,-1.8 -22.2,-4.5 -22.2,-18 z" />
                <path
                   id="path1832"
                   d="m 501.60001,-179.1 c 8.4,0 14.7,-6.6 14.7,-15.3 0,-8.7 -6.3,-15.3 -14.7,-15.3 -9,0 -15.3,6.6 -15.3,15.3 0,8.7 6.3,15.3 15.3,15.3 z m 9.3,157.2 v -132.3 h -4.2 l -36.9,12 v 4.2 h 2.7 c 15.3,-0.3 19.5,6.9 19.5,19.2 v 96.9 c 0,13.5 -10.8,16.2 -22.2,18 V 0 h 63.3 v -3.9 c -11.4,-1.8 -22.2,-4.5 -22.2,-18 z" />
                <path
                   id="path1834"
                   d="m 629.70001,-17.4 c -7.5,5.4 -13.5,8.4 -22.8,8.4 -14.7,0 -25.5,-6.9 -25.5,-29.1 v -103.2 h 47.7 v -8.7 h -47.7 v -41.4 l -18.9,10.2 v 31.2 h -25.2 v 8.7 h 25.2 v 102 c 0,30.3 12.3,43.5 35.1,43.5 15.9,0 25.5,-9.9 34.8,-17.4 z" />
                <path
                   id="path1836"
                   d="m 664.80002,56.7 v 2.7 h 18.3 l 80.4,-193.2 c 3,-6.9 7.2,-10.2 18,-12.3 v -3.9 h -50.7 v 3.9 c 19.5,3.3 26.1,6 20.1,20.1 l -39.3,94.5 -40.2,-94.5 c -5.7,-12.9 -1.2,-16.8 19.2,-20.1 v -3.9 h -61.5 v 3.9 c 11.7,3.3 15,6 17.7,12 l 55.2,128.4 z" />
              </g>
            </g>
          </g>
        </g>
        <g
           id="g935">
          <g
             id="g937" />
          <g
             id="g949">
            <g
               clip-path="url(#clipPath941)"
               opacity="0.330002"
               id="g947">
              <g
                 style="font-variant:normal;font-weight:300;font-stretch:normal;font-size:300px;font-family:'Reckless Light';-inkscape-font-specification:Reckless-Light;writing-mode:lr-tb;fill:#000000;fill-opacity:1;fill-rule:nonzero;stroke:none"
                 id="text945"
                 transform="matrix(1,0,0,-1,920.2739,374.4512)"
                 aria-label="tokens">
                <path
                   id="path1839"
                   d="M 96,-17.4 C 88.5,-12 82.5,-9 73.2,-9 58.5,-9 47.7,-15.9 47.7,-38.1 V -141.3 H 95.4 V -150 H 47.7 v -41.4 l -18.9,10.2 V -150 H 3.6 v 8.7 h 25.2 v 102 c 0,30.3 12.3,43.5 35.1,43.5 15.9,0 25.5,-9.9 34.8,-17.4 z" />
                <path
                   id="path1841"
                   d="m 173.1,4.2 c 36.9,0 68.7,-32.1 68.7,-81.9 0,-44.7 -27,-76.5 -66.9,-76.5 -36.3,0 -68.1,32.4 -68.1,82.5 0,44.4 27,75.9 66.3,75.9 z M 177,-6 c -38.1,0 -49.8,-48 -49.8,-75.3 0,-36.6 18,-62.7 44.7,-62.7 37.8,0 49.8,47.7 49.8,74.7 0,36.6 -18,63.3 -44.7,63.3 z" />
                <path
                   id="path1843"
                   d="m 383.7,-17.1 -57.9,-77.4 47.1,-41.7 c 7.8,-6.9 13.8,-9.9 26.1,-9.9 v -3.9 h -54.3 v 3.9 c 24,0 17.1,7.8 6,17.7 l -54.3,48.9 v -132.9 h -4.2 l -38.4,12 v 3.9 h 2.7 c 17.1,0 20.7,8.4 20.7,19.5 v 155.1 c 0,12.9 -11.1,16.2 -23.4,18 V 0 h 66 v -3.9 c -11.4,-1.8 -23.4,-4.2 -23.4,-18 V -68.4 L 311.7,-81.9 371.1,0 h 37.8 v -3.9 c -11.1,0 -17.4,-2.4 -25.2,-13.2 z" />
                <path
                   id="path1845"
                   d="m 476.99999,-154.2 c -39.6,0 -69,30.6 -69,83.4 0,41.1 26.4,75 64.8,75 28.5,0 50.1,-18.6 57.9,-42.3 l -3.3,-1.5 c -10.2,12.9 -23.7,25.8 -45.9,25.8 -32.4,0 -53.7,-27.6 -54.6,-70.5 h 105 c 0,-36.3 -18.6,-69.9 -54.9,-69.9 z m -4.8,9.6 c 26.7,0 36,22.8 38.1,51.9 h -83.1 c 2.7,-30 16.2,-51.9 45,-51.9 z" />
                <path
                   id="path1847"
                   d="m 681.89998,-21.9 v -82.8 c 0,-33.9 -21.6,-49.5 -43.8,-49.5 -17.7,0 -33.3,10.8 -51.3,34.8 v -34.8 h -4.2 l -36.9,12 v 4.2 h 2.7 c 15.3,-0.3 19.5,6.9 19.5,19.2 v 96.9 c 0,13.5 -10.8,16.2 -22.2,18 V 0 h 63.3 v -3.9 c -11.4,-1.8 -22.2,-4.5 -22.2,-18 v -90.3 c 15.6,-17.7 27.9,-24.9 43.8,-24.9 18.3,0 32.4,9.9 32.4,35.1 v 80.1 c 0,13.5 -10.8,16.2 -22.2,18 V 0 h 63.3 v -3.9 c -11.4,-1.8 -22.2,-4.5 -22.2,-18 z" />
                <path
                   id="path1849"
                   d="m 765.60002,-154.2 c -30,0 -49.5,16.5 -49.2,41.7 0.6,45.9 85.8,36.9 86.4,78.9 0.3,15 -12.3,29.1 -33.3,29.1 -17.7,0 -31.8,-13.2 -36.6,-34.8 l -22.2,13.2 c 11.7,19.5 33.6,30.3 56.7,30.3 32.7,0 53.4,-20.7 52.8,-45.9 -1.2,-53.7 -87.6,-38.1 -87.6,-78 0,-15.3 12.6,-25.8 32.1,-25.8 16.8,0 28.8,11.4 33.9,30.6 l 21.3,-14.4 c -5.7,-9.3 -20.1,-24.9 -54.3,-24.9 z" />
              </g>
            </g>
          </g>
        </g>
      </g>
    </g>
  </g>
</svg>
