<?xml version="1.0" encoding="UTF-8" standalone="no"?>
<svg
   xmlns:dc="http://purl.org/dc/elements/1.1/"
   xmlns:cc="http://creativecommons.org/ns#"
   xmlns:rdf="http://www.w3.org/1999/02/22-rdf-syntax-ns#"
   xmlns:svg="http://www.w3.org/2000/svg"
   xmlns="http://www.w3.org/2000/svg"
   xmlns:sodipodi="http://sodipodi.sourceforge.net/DTD/sodipodi-0.dtd"
   xmlns:inkscape="http://www.inkscape.org/namespaces/inkscape"
   inkscape:version="1.0 (4035a4f, 2020-05-01)"
   sodipodi:docname="discord-icon.svg"
   id="svg835"
   version="1.1"
   fill="none"
   viewBox="0 0 24 17.999994"
   height="17.999994"
   width="24">
  <metadata
     id="metadata841">
    <rdf:RDF>
      <cc:Work
         rdf:about="">
        <dc:format>image/svg+xml</dc:format>
        <dc:type
           rdf:resource="http://purl.org/dc/dcmitype/StillImage" />
      </cc:Work>
    </rdf:RDF>
  </metadata>
  <defs
     id="defs839" />
  <sodipodi:namedview
     inkscape:current-layer="svg835"
     inkscape:window-maximized="1"
     inkscape:window-y="23"
     inkscape:window-x="0"
     inkscape:cy="10.386555"
     inkscape:cx="12"
     inkscape:zoom="24.791667"
     showgrid="false"
     id="namedview837"
     inkscape:window-height="959"
     inkscape:window-width="1920"
     inkscape:pageshadow="2"
     inkscape:pageopacity="0"
     guidetolerance="10"
     gridtolerance="10"
     objecttolerance="10"
     borderopacity="1"
     bordercolor="#666666"
     pagecolor="#ffffff" />
  <path
     id="path833"
     fill="#000000"
     d="m 20.316999,1.4920963 c -1.5297,-0.69062992 -3.17,-1.19944992 -4.8851,-1.49087992 -0.0312,-0.0056 -0.0624,0.0084 -0.0785,0.03655 -0.211,0.3692 -0.4447,0.85084996 -0.6083,1.22941992 -1.844701,-0.27173996 -3.679901,-0.27173996 -5.4867791,0 -0.16367,-0.38698996 -0.40584,-0.86021992 -0.61775,-1.22941992 -0.01608,-0.02718 -0.04729,-0.04123 -0.07852,-0.03655 -1.71414,0.2905 -3.35449,0.79932 -4.88512,1.49087992 -0.01325,0.0056 -0.0246,0.015 -0.03214,0.02718 -3.11139793,4.57383 -3.96373993,9.0352207 -3.54560993,13.4413207 0.0019,0.0216 0.01419,0.0422 0.03122,0.0553 2.05281193,1.4834 4.04131193,2.3839 5.99288193,2.9808 0.03123,0.0094 0.06433,-0.0018 0.0842,-0.0272 0.46165,-0.6203 0.87316,-1.2743 1.226,-1.9622 0.02082,-0.0403 9.4e-4,-0.0881 -0.04162,-0.104 -0.65273,-0.2436 -1.27426,-0.5407 -1.87213,-0.878 -0.04729,-0.0272 -0.05108,-0.0937 -0.0076,-0.1256 0.12581,-0.0928 0.25166,-0.1893 0.3718,-0.2867 0.02173,-0.0178 0.05202,-0.0216 0.07757,-0.0104 3.92775,1.7646 8.1799691,1.7646 12.0614691,0 0.0255,-0.0121 0.0558,-0.0084 0.0785,0.0094 0.1201,0.0975 0.246,0.1949 0.3727,0.2877 0.0435,0.0319 0.0407,0.0984 -0.0066,0.1256 -0.5979,0.3439 -1.2194,0.6344 -1.8731,0.8771 -0.0425,0.0159 -0.0615,0.0646 -0.0407,0.1049 0.3605,0.6869 0.772,1.341 1.2251,1.9613 0.0189,0.0263 0.053,0.0375 0.0842,0.0281 1.961,-0.5969 3.9495,-1.4974 6.0023,-2.9808 0.018,-0.0131 0.0294,-0.0328 0.0313,-0.0543 0.5004,-5.0940005 -0.8382,-9.5188007 -3.5485,-13.4413907 -0.0066,-0.01311 -0.0179,-0.02249 -0.0312,-0.02811 z M 8.0200199,12.277797 c -1.18252,0 -2.15689,-1.0683 -2.15689,-2.3802005 0,-1.3119004 0.95547,-2.3801002 2.15689,-2.3801002 1.21085,0 2.1757781,1.0775998 2.1568781,2.3801002 0,1.3119005 -0.9554881,2.3802005 -2.1568781,2.3802005 z m 7.9746791,0 c -1.1824,0 -2.156801,-1.0683 -2.156801,-2.3802005 0,-1.3119004 0.955401,-2.3801002 2.156801,-2.3801002 1.2109,0 2.1758,1.0775998 2.1569,2.3801002 0,1.3119005 -0.946,2.3802005 -2.1569,2.3802005 z" />
</svg>
