<?xml version="1.0" encoding="UTF-8" standalone="no"?>
<!-- Generator: Adobe Illustrator 26.2.1, SVG Export Plug-In . SVG Version: 6.00 Build 0)  -->

<svg
   version="1.1"
   id="Capa_1"
   x="0px"
   y="0px"
   viewBox="0 0 32.6 18.5"
   xml:space="preserve"
   width="32.599998"
   height="18.5"
   xmlns="http://www.w3.org/2000/svg"
   xmlns:svg="http://www.w3.org/2000/svg"><defs
   id="defs39" />
<style
   type="text/css"
   id="style25">
	.st0{fill:#FFFFFF;}
</style>
<g
   id="a"
   transform="translate(0,-4)">
</g>
<g
   id="g34"
   style="fill:#000000"
   transform="translate(0,-4)">
	<path
   class="st0"
   d="m 18.4,13.2 c 0,5.1 -4.1,9.3 -9.2,9.3 C 4.1,22.5 0,18.3 0,13.2 0,8.1 4.1,4 9.2,4 c 5.1,0 9.2,4.1 9.2,9.2"
   id="path28"
   style="fill:#000000" />
	<path
   class="st0"
   d="m 28.5,13.2 c 0,4.8 -2.1,8.7 -4.6,8.7 -2.5,0 -4.6,-3.9 -4.6,-8.7 0,-4.8 2.1,-8.7 4.6,-8.7 2.5,0 4.6,3.9 4.6,8.7"
   id="path30"
   style="fill:#000000" />
	<path
   class="st0"
   d="m 32.6,13.2 c 0,4.3 -0.7,7.8 -1.6,7.8 -0.9,0 -1.6,-3.5 -1.6,-7.8 0,-4.3 0.7,-7.8 1.6,-7.8 0.9,0 1.6,3.5 1.6,7.8"
   id="path32"
   style="fill:#000000" />
</g>
</svg>
